<?xml version="1.0" standalone="no"?>
<!DOCTYPE svg PUBLIC "-//W3C//DTD SVG 20010904//EN"
 "http://www.w3.org/TR/2001/REC-SVG-20010904/DTD/svg10.dtd">
<svg version="1.0" xmlns="http://www.w3.org/2000/svg"
 width="26.000000pt" height="25.000000pt" viewBox="0 0 26.000000 25.000000"
 preserveAspectRatio="xMidYMid meet">

<g transform="translate(0.000000,25.000000) scale(0.100000,-0.100000)"
fill="#000000" stroke="none">
<path d="M140 125 c0 -126 0 -126 23 -120 42 12 72 42 86 84 11 36 11 48 0 78
-14 37 -47 66 -86 78 -23 6 -23 6 -23 -120z"/>
<path d="M39 211 c-16 -16 -29 -35 -29 -43 1 -7 7 -1 16 14 8 15 27 34 42 42
15 9 21 15 14 16 -8 0 -27 -13 -43 -29z"/>
<path d="M60 185 c-13 -14 -22 -26 -19 -28 2 -1 16 10 31 25 15 15 23 28 19
28 -4 0 -18 -11 -31 -25z"/>
<path d="M2 120 c0 -14 2 -19 5 -12 2 6 2 18 0 25 -3 6 -5 1 -5 -13z"/>
<path d="M31 124 c0 -11 3 -14 6 -6 3 7 2 16 -1 19 -3 4 -6 -2 -5 -13z"/>
<path d="M40 91 c0 -9 49 -56 53 -50 1 2 -10 16 -25 31 -15 15 -28 23 -28 19z"/>
<path d="M10 82 c0 -17 55 -72 72 -72 7 1 1 7 -14 16 -15 8 -34 27 -42 42 -9
15 -15 21 -16 14z"/>
</g>
</svg>
