<svg width="16" height="16" viewBox="0 0 16 16" fill="none" xmlns="http://www.w3.org/2000/svg">
<path d="M7.99967 14.6667C4.31767 14.6667 1.33301 11.682 1.33301 7.99999C1.33301 4.31799 4.31767 1.33333 7.99967 1.33333C11.6817 1.33333 14.6663 4.31799 14.6663 7.99999C14.6663 11.682 11.6817 14.6667 7.99967 14.6667ZM7.99967 13.3333C9.41416 13.3333 10.7707 12.7714 11.7709 11.7712C12.7711 10.771 13.333 9.41448 13.333 7.99999C13.333 6.58551 12.7711 5.22895 11.7709 4.22876C10.7707 3.22856 9.41416 2.66666 7.99967 2.66666C6.58519 2.66666 5.22863 3.22856 4.22844 4.22876C3.22824 5.22895 2.66634 6.58551 2.66634 7.99999C2.66634 9.41448 3.22824 10.771 4.22844 11.7712C5.22863 12.7714 6.58519 13.3333 7.99967 13.3333ZM7.99967 12V3.99999C9.06054 3.99999 10.078 4.42142 10.8281 5.17157C11.5782 5.92171 11.9997 6.93913 11.9997 7.99999C11.9997 9.06086 11.5782 10.0783 10.8281 10.8284C10.078 11.5786 9.06054 12 7.99967 12Z" fill="#236DA3"/>
</svg>
