<svg width="80" height="80" viewBox="0 0 80 80" fill="none" xmlns="http://www.w3.org/2000/svg">
<rect width="80" height="80" rx="40" fill="#FFEAEC"/>
<path d="M46.667 32H53.3337V34.6666H50.667V52C50.667 52.3536 50.5265 52.6927 50.2765 52.9428C50.0264 53.1928 49.6873 53.3333 49.3337 53.3333H30.667C30.3134 53.3333 29.9742 53.1928 29.7242 52.9428C29.4741 52.6927 29.3337 52.3536 29.3337 52V34.6666H26.667V32H33.3337V28C33.3337 27.6463 33.4741 27.3072 33.7242 27.0572C33.9742 26.8071 34.3134 26.6666 34.667 26.6666H45.3337C45.6873 26.6666 46.0264 26.8071 46.2765 27.0572C46.5265 27.3072 46.667 27.6463 46.667 28V32ZM36.0003 38.6666V46.6666H38.667V38.6666H36.0003ZM41.3337 38.6666V46.6666H44.0003V38.6666H41.3337ZM36.0003 29.3333V32H44.0003V29.3333H36.0003Z" fill="#EC163C"/>
</svg>
