<svg width="51" height="50" viewBox="0 0 51 50" fill="none" xmlns="http://www.w3.org/2000/svg">
<rect x="0.5" width="50" height="50" rx="16" fill="#665AEC"/>
<path d="M26 12C19.0957 12 13.5 17.3478 13.5 23.9461H38.5C38.5 17.3478 32.902 12 26 12Z" fill="white"/>
<path d="M37.1154 25.7109C37.1154 31.7467 32.1243 36.6546 25.9914 36.6546C19.8585 36.6546 14.8652 31.7444 14.8652 25.7109H13.5C13.5 32.4873 19.1034 37.9999 25.9914 37.9999C32.8794 37.9999 38.4828 32.4873 38.4828 25.7109H37.1177H37.1154Z" fill="white"/>
<path d="M25.9914 34.9224C31.1551 34.9224 35.3565 30.7891 35.3565 25.7091H33.9913C33.9913 30.0485 30.4023 33.5771 25.9937 33.5771C21.5851 33.5771 17.996 30.0462 17.996 25.7091H16.6309C16.6309 30.7891 20.8323 34.9224 25.996 34.9224H25.9914Z" fill="white"/>
</svg>
