<svg width="16" height="16" viewBox="0 0 16 16" fill="none" xmlns="http://www.w3.org/2000/svg">
<path d="M8.70684 5.40667L9.65017 6.35C10.0836 6.78335 10.4273 7.29782 10.6619 7.86403C10.8965 8.43025 11.0172 9.03713 11.0172 9.65C11.0172 10.2629 10.8965 10.8698 10.6619 11.436C10.4273 12.0022 10.0836 12.5167 9.65017 12.95L9.41417 13.1853C8.53896 14.0605 7.35191 14.5522 6.11417 14.5522C4.87643 14.5522 3.68938 14.0605 2.81417 13.1853C1.93896 12.3101 1.44727 11.1231 1.44727 9.88533C1.44727 8.64759 1.93896 7.46055 2.81417 6.58533L3.7575 7.52867C3.44575 7.8377 3.19811 8.20527 3.02879 8.61027C2.85947 9.01527 2.77182 9.44972 2.77086 9.88869C2.76989 10.3277 2.85565 10.7625 3.02319 11.1682C3.19073 11.574 3.43676 11.9426 3.74716 12.253C4.05756 12.5634 4.4262 12.8094 4.83194 12.977C5.23768 13.1445 5.67251 13.2303 6.11148 13.2293C6.55045 13.2284 6.9849 13.1407 7.3899 12.9714C7.7949 12.8021 8.16247 12.5544 8.4715 12.2427L8.7075 12.0067C9.33241 11.3816 9.68346 10.5339 9.68346 9.65C9.68346 8.76612 9.33241 7.91843 8.7075 7.29333L7.76417 6.35L8.7075 5.40733L8.70684 5.40667ZM13.1855 9.414L12.2428 8.47133C12.5546 8.1623 12.8022 7.79473 12.9716 7.38973C13.1409 6.98473 13.2285 6.55028 13.2295 6.11131C13.2304 5.67234 13.1447 5.23751 12.9772 4.83177C12.8096 4.42603 12.5636 4.05739 12.2532 3.74699C11.9428 3.43659 11.5741 3.19056 11.1684 3.02302C10.7627 2.85548 10.3278 2.76972 9.88886 2.77069C9.44989 2.77165 9.01544 2.8593 8.61044 3.02862C8.20544 3.19794 7.83787 3.44558 7.52884 3.75733L7.29284 3.99333C6.66793 4.61843 6.31688 5.46612 6.31688 6.35C6.31688 7.23388 6.66793 8.08157 7.29284 8.70667L8.23617 9.65L7.29284 10.5927L6.35017 9.65C5.91678 9.21665 5.57299 8.70218 5.33844 8.13597C5.10389 7.56975 4.98317 6.96287 4.98317 6.35C4.98317 5.73712 5.10389 5.13025 5.33844 4.56403C5.57299 3.99782 5.91678 3.48335 6.35017 3.05L6.58617 2.81467C7.46138 1.93945 8.64843 1.44776 9.88617 1.44776C11.1239 1.44776 12.311 1.93945 13.1862 2.81467C14.0614 3.68988 14.5531 4.87693 14.5531 6.11467C14.5531 7.35241 14.0614 8.53945 13.1862 9.41467L13.1855 9.414Z" fill="#414552"/>
</svg>
